<svg viewBox="0 0 137 69" xmlns="http://www.w3.org/2000/svg">
<g><path d="m15.7 69a52.7 52.7 0 0 1 7.1-26.5l-10.7-6.2a61.7 61.7 0 0 0 -8.7 32.7z" fill="#4ff0e6"></path><path d="m125.8 37.2-10 5.8a53.3 53.3 0 0 1 6.8 26h11.5a63.5 63.5 0 0 0 -8.3-31.8z" fill="#772c89"></path><path d="m102.3 12.9-5.9 10.3h-.1a52.7 52.7 0 0 1 18.9 18.9l10.1-5.8a63 63 0 0 0 -23-23.4z" fill="#a83654"></path><path d="m69.7 3.6v12.1a53.4 53.4 0 0 1 25.8 6.9l5.9-10.2a63 63 0 0 0 -31.7-8.8z" fill="#ec5e58"></path><path d="m67.9 3.6a62.9 62.9 0 0 0 -31 8.3l6.1 10.6a53.2 53.2 0 0 1 25.7-6.8v-12.1z" fill="#ede661"></path><path d="m36 12.4a63 63 0 0 0 -23.4 23l10.7 6.2a54.9 54.9 0 0 1 18.8-18.6z" fill="#50ccaa"></path></g>
<g class="airmeter-level-1"><path d="m1.9 44.7-2.9 13.3 13.4-4.1z" fill="#fff"></path><path d="m.4 56.5 2.1-9.9 7.8 6.9z" fill="#071f32"></path></g>
<g class="airmeter-level-2"><path d="m23.8 13.9-9.3 9.9 13.6 3.4z" fill="#fff"></path><path d="m16.4 23.3 6.9-7.4 3.2 9.9z" fill="#071f32"></path></g>
<g class="airmeter-level-3"><path d="m57.2-1-13 3.9 10.1 9.8z" fill="#fff"></path><path d="m46.2 3.4 9.7-2.9-2.2 10.2z" fill="#071f32"></path></g>
<g class="airmeter-level-4"><path d="m93.6 2.8-13.2-3.1 3.8 13.5z" fill="#fff"></path><path d="m81.8 1.1 9.9 2.3-7 7.8z" fill="#071f32"></path></g>
<g class="airmeter-level-5"><path d="m123.1 24.2-9.9-9.3-3.4 13.6z" fill="#fff"></path><path d="m113.7 16.8 7.4 6.9-9.9 3.3z" fill="#071f32"></path></g>
<g class="airmeter-level-6"><path d="m138 57.1-4.1-12.9-9.6 10.1z" fill="#fff"></path><path d="m133.5 46.1 3 9.7-10.2-2.1z" fill="#071f32"></path></g>
</svg>