<svg class="paris-icon-sprite" style="display: none" xmlns="http://www.w3.org/2000/svg"><defs><symbol id="paris-icon-loader" viewBox="0 0 8 8"><path d="M4,0C1.8,0,0,1.8,0,4s1.8,4,4,4c0,0,0-0.3,0-1C2.3,7,1,5.7,1,4s1.3-3,3-3C4,0.5,4,0.6,4,0L4,0z"><animateTransform attributeName="transform" type="rotate" from="0 4 4" to="360 4 4" dur="0.6s" repeatCount="indefinite"></animateTransform></path></symbol><symbol id="paris-icon-check" viewBox="0 0 14 14"><path d="M 11.52 1.76 L 5.02 8.25 L 2.51 5.67 L 0.5 7.62 L 4.99 12.24 L 13.5 3.74 Z"></path></symbol><symbol id="paris-icon-facebook" viewBox="0 0 32 32"><path d="M16.546 24H8.883A.883.883 0 0 1 8 23.117V8.883C8 8.395 8.395 8 8.883 8h14.234c.488 0 .883.395.883.883v14.234a.883.883 0 0 1-.883.883H19.04v-6.196h2.08l.31-2.415h-2.39v-1.541c0-.7.194-1.176 1.196-1.176h1.28v-2.16c-.222-.03-.981-.095-1.864-.095-1.844 0-3.106 1.125-3.106 3.191v1.781h-2.085v2.415h2.085V24z"></path></symbol><symbol id="paris-icon-twitter" viewBox="0 0 32 32"><path d="M25 10.776a7.213 7.213 0 0 1-2.12.596 3.778 3.778 0 0 0 1.623-2.095 7.273 7.273 0 0 1-2.346.918A3.642 3.642 0 0 0 19.462 9c-2.038 0-3.692 1.696-3.692 3.787 0 .296.032.585.095.862-3.069-.158-5.79-1.664-7.612-3.958a3.856 3.856 0 0 0-.5 1.906c0 1.313.652 2.472 1.643 3.152a3.626 3.626 0 0 1-1.673-.473v.047c0 1.835 1.273 3.366 2.963 3.713-.31.089-.636.133-.973.133-.238 0-.47-.023-.695-.067.47 1.504 1.833 2.599 3.45 2.628A7.292 7.292 0 0 1 7 22.3a10.282 10.282 0 0 0 5.66 1.7c6.794 0 10.508-5.77 10.508-10.774 0-.164-.003-.329-.01-.49A7.58 7.58 0 0 0 25 10.776"></path></symbol><symbol id="paris-icon-instagram" viewBox="0 0 32 32"><path d="M16 7c-2.444 0-2.75.01-3.71.054-.959.044-1.613.196-2.185.419A4.411 4.411 0 0 0 8.51 8.51c-.5.5-.809 1.002-1.038 1.594-.223.572-.375 1.226-.419 2.184C7.01 13.25 7 13.556 7 16s.01 2.75.054 3.71c.044.959.196 1.613.419 2.185.23.592.537 1.094 1.038 1.594.5.5 1.002.809 1.594 1.039.572.222 1.226.374 2.184.418.96.044 1.267.054 3.711.054s2.75-.01 3.71-.054c.959-.044 1.613-.196 2.185-.418a4.412 4.412 0 0 0 1.594-1.039c.5-.5.809-1.002 1.039-1.594.222-.572.374-1.226.418-2.184.044-.96.054-1.267.054-3.711s-.01-2.75-.054-3.71c-.044-.959-.196-1.613-.418-2.185a4.412 4.412 0 0 0-1.039-1.594c-.5-.5-1.002-.809-1.594-1.038-.572-.223-1.226-.375-2.184-.419C18.75 7.01 18.444 7 16 7zm0 1.622c2.403 0 2.688.009 3.637.052.877.04 1.354.187 1.67.31.421.163.72.358 1.036.673.315.315.51.615.673 1.035.123.317.27.794.31 1.671.043.95.052 1.234.052 3.637s-.009 2.688-.052 3.637c-.04.877-.187 1.354-.31 1.67-.163.421-.358.72-.673 1.036-.315.315-.615.51-1.035.673-.317.123-.794.27-1.671.31-.95.043-1.234.052-3.637.052s-2.688-.009-3.637-.052c-.877-.04-1.354-.187-1.67-.31a2.788 2.788 0 0 1-1.036-.673 2.789 2.789 0 0 1-.673-1.035c-.123-.317-.27-.794-.31-1.671-.043-.95-.052-1.234-.052-3.637s.009-2.688.052-3.637c.04-.877.187-1.354.31-1.67.163-.421.358-.72.673-1.036.315-.315.615-.51 1.035-.673.317-.123.794-.27 1.671-.31.95-.043 1.234-.052 3.637-.052zm0 2.756a4.622 4.622 0 1 0 0 9.244 4.622 4.622 0 0 0 0-9.244zM16 19a3 3 0 1 1 0-6 3 3 0 0 1 0 6zm5.884-7.804a1.08 1.08 0 1 1-2.16 0 1.08 1.08 0 0 1 2.16 0z"></path></symbol><symbol id="paris-icon-linkedin" viewBox="0 0 32 32"><path d="M26 23h-3.757v-5.273c0-1.38-.588-2.323-1.88-2.323-.989 0-1.539.636-1.795 1.25-.095.219-.08.525-.08.832V23h-3.723s.048-9.34 0-10.19h3.723v1.6c.22-.7 1.409-1.698 3.307-1.698 2.355 0 4.205 1.466 4.205 4.622V23zM11.001 11.536h-.024c-1.2 0-1.977-.78-1.977-1.767C9 8.763 9.8 8 11.024 8c1.222 0 1.974.76 1.998 1.766 0 .988-.776 1.77-2.02 1.77zM9.43 12.81h3.313V23H9.43V12.81z"></path></symbol><symbol id="paris-icon-youtube" viewBox="-21 -117 682.67 682"><path d="M626.81 64.04a80.18 80.18 0 00-56.4-56.42c-50.09-13.7-250.42-13.7-250.42-13.7S119.67-6.08 69.6 7.1c-26.9 7.38-49.04 29.52-56.41 56.94C0 114.1 0 217.97 0 217.97S0 322.35 13.18 371.9a80.2 80.2 0 0056.41 56.41C120.19 442.02 320 442.02 320 442.02s200.32 0 250.4-13.18a80.18 80.18 0 0056.42-56.41C640 322.35 640 218.5 640 218.5s.52-104.39-13.19-154.46zM256.21 313.9V122.02l166.59 95.95zm0 0"></path></symbol><symbol id="paris-icon-download" viewBox="0 0 32 32"><path d="M17.004 17.662l3.067-3.067 1.414 1.415-5.475 5.475-5.476-5.475 1.414-1.415 3.056 3.057V8.027h2v9.635zM11 23h10v2H11v-2z"></path></symbol><symbol id="paris-icon-clock" viewBox="0 0 32 32"><path d="M16 9c3.86 0 7 3.14 7 7s-3.14 7-7 7-7-3.14-7-7 3.14-7 7-7zm0 12.444A5.45 5.45 0 0 0 21.444 16 5.45 5.45 0 0 0 16 10.556 5.45 5.45 0 0 0 10.556 16 5.45 5.45 0 0 0 16 21.444zm.778-9.333v3.473l1.987 1.324-.863 1.295-2.68-1.787v-4.305h1.556z"></path></symbol><symbol id="paris-icon-search" viewBox="0 0 32 32"><path d="M20.2517783,18.9919966 L25.0362131,24.0664448 L22.8534353,26.1244732 L17.9712161,20.9463133 C16.8010506,21.6167419 15.4452827,22 14,22 C9.581722,22 6,18.418278 6,14 C6,9.581722 9.581722,6 14,6 C18.418278,6 22,9.581722 22,14 C22,15.8882102 21.3458363,17.6236322 20.2517783,18.9919966 L20.2517783,18.9919966 Z M14,19 C16.7614237,19 19,16.7614237 19,14 C19,11.2385763 16.7614237,9 14,9 C11.2385763,9 9,11.2385763 9,14 C9,16.7614237 11.2385763,19 14,19 Z"></path></symbol><symbol id="paris-icon-arrow-right" viewBox="0 0 32 32"><path d="M16.464 15.707l-4.585-4.586 2.828-2.828 7.414 7.414-7.414 7.414-2.828-2.828z"></path></symbol><symbol id="paris-icon-arrow-top" viewBox="0 0 32 32"><polygon points="16 16.2426407 11.4142136 20.8284271 8.58578644 18 16 10.5857864 23.4142136 18 20.5857864 20.8284271"></polygon></symbol><symbol id="paris-icon-user" viewBox="0 0 32 32"><path d="M18.875 12.066a6.613 6.613 0 0 1 3.326 5.727v7.02c0 .287-.114.563-.318.767-3.354 3.354-9.303 3.263-12.565 0A1.086 1.086 0 0 1 9 24.812v-7.02a6.61 6.61 0 0 1 3.14-5.615 5.183 5.183 0 1 1 6.735-.11zm-3.264 1.297l-.165.003c-2.363.082-4.275 2.045-4.275 4.427v6.546c2.382 2.04 6.421 2.095 8.86 0v-6.546c0-2.43-1.99-4.424-4.42-4.43zm-.041-2.171a3.012 3.012 0 1 0-.254-6.019 3.012 3.012 0 0 0 .254 6.019z"></path></symbol><symbol id="paris-icon-location" viewBox="0 0 32 32"><path d="M16,26.667 C13.641,23.52 9,16.936 9,13 C9,9.14 12.14,6 16,6 C19.86,6 23,9.14 23,13 C23,16.936 18.359,23.521 16,26.667 Z M16,11 C14.898,11 14,11.898 14,13 C14,14.104 14.898,15 16,15 C17.102,15 18,14.104 18,13 C18,11.898 17.102,11 16,11 Z"></path></symbol><symbol id="paris-icon-search" viewBox="0 0 32 32"><path d="M20.2517783,18.9919966 L25.0362131,24.0664448 L22.8534353,26.1244732 L17.9712161,20.9463133 C16.8010506,21.6167419 15.4452827,22 14,22 C9.581722,22 6,18.418278 6,14 C6,9.581722 9.581722,6 14,6 C18.418278,6 22,9.581722 22,14 C22,15.8882102 21.3458363,17.6236322 20.2517783,18.9919966 L20.2517783,18.9919966 Z M14,19 C16.7614237,19 19,16.7614237 19,14 C19,11.2385763 16.7614237,9 14,9 C11.2385763,9 9,11.2385763 9,14 C9,16.7614237 11.2385763,19 14,19 Z"></path></symbol><symbol id="paris-icon-close" viewBox="0 0 32 32"><path d="M16 13.379l6.718-6.718 2.12 2.121-6.717 6.718 6.718 6.718-2.121 2.12L16 17.622 9.282 24.34l-2.12-2.121 6.717-6.718L7.16 8.782l2.121-2.12z"></path></symbol><symbol id="paris-icon-arrow-left-up" viewBox="0 0 16 16" style="enable-background:new 0 0 16 16" xml:space="preserve"><path d="m2.215 11.619-.9-9.1c-.1-.5.3-1 .8-1h.2l9.1.9c.5 0 .9.5.9 1.1 0 .5-.5.9-1.1.9l-6.4-.6 9.4 9.4c.4.4.3 1-.1 1.4-.4.3-1 .3-1.3 0l-9.4-9.4.6 6.4c0 .5-.3 1-.9 1h-.1c-.3-.1-.7-.5-.8-1z"></path></symbol><symbol id="paris-icon-clock2" viewBox="0 0 16 16"><path d="M8.8,7.6l2,1.3-.9,1.3L7.2,8.4V4.1H8.8ZM15,8a7,7,0,0,1-7,7A7,7,0,0,1,1,8,7,7,0,0,1,8,1,7,7,0,0,1,15,8ZM13.4,8A5.4,5.4,0,1,0,8,13.4,5.4,5.4,0,0,0,13.4,8Z"></path></symbol><symbol id="paris-icon-arrow-left-up" viewBox="0 0 16 16" style="enable-background:new 0 0 16 16" xml:space="preserve"><path d="m2.215 11.619-.9-9.1c-.1-.5.3-1 .8-1h.2l9.1.9c.5 0 .9.5.9 1.1 0 .5-.5.9-1.1.9l-6.4-.6 9.4 9.4c.4.4.3 1-.1 1.4-.4.3-1 .3-1.3 0l-9.4-9.4.6 6.4c0 .5-.3 1-.9 1h-.1c-.3-.1-.7-.5-.8-1z"></path></symbol><symbol id="paris-icon-external" viewBox="0 0 32 32"><path d="M22.224 22.224H9.776V9.776h4.376V8H9.776A1.768 1.768 0 008 9.776v12.448A1.768 1.768 0 009.776 24h12.448A1.784 1.784 0 0024 22.224v-4.376h-1.776zM17.776 8v1.776h3.2l-5.04 5.04 1.256 1.256 5.04-5.04v3.2H24V8z"></path></symbol><symbol id="paris-icon-search--calendar" viewBox="0 0 13.761 13.878"><path d="M11.175 1.11H10.3V.57A.57.57 0 0 0 9.73 0a.561.561 0 0 0-.57.57v.54H4.6V.57A.57.57 0 0 0 4.03 0a.561.561 0 0 0-.57.57v.54h-.874A2.581 2.581 0 0 0 0 3.7v7.6a2.59 2.59 0 0 0 2.586 2.586h8.59a2.581 2.581 0 0 0 2.586-2.586V3.7a2.59 2.59 0 0 0-2.587-2.59zM2.586 2.235h.876v.541a.57.57 0 0 0 .57.57.561.561 0 0 0 .57-.57v-.541H9.16v.541a.57.57 0 0 0 .57.57.561.561 0 0 0 .57-.57v-.541h.876A1.453 1.453 0 0 1 12.622 3.7v.745H1.139V3.7a1.453 1.453 0 0 1 1.447-1.465zm8.59 10.5h-8.59a1.465 1.465 0 0 1-1.461-1.461V5.566h11.5v5.712a1.443 1.443 0 0 1-1.45 1.46z"></path></symbol><symbol id="paris-icon-search--minimarker" viewBox="0 0 12.237 14.608"><path d="M6.12 0A5.914 5.914 0 0 0 0 5.682c0 4.419 6.12 8.925 6.12 8.925s6.118-4.506 6.118-8.925A5.914 5.914 0 0 0 6.12 0zm.042 3.621a2.5 2.5 0 0 1 2.5 2.5 2.5 2.5 0 0 1-2.5 2.5 2.5 2.5 0 0 1-2.5-2.5 2.5 2.5 0 0 1 2.5-2.5z"></path></symbol><symbol id="paris-icon-search--audience" viewBox="0 0 13.273 14.634"><path d="M6.637 0a4.576 4.576 0 1 0 4.576 4.576A4.565 4.565 0 0 0 6.637 0zm0 7.77a3.195 3.195 0 1 1 3.195-3.195A3.184 3.184 0 0 1 6.637 7.77z"></path><path d="M6.637 7.997A6.632 6.632 0 0 0 0 14.634h1.175a5.462 5.462 0 1 1 10.924 0h1.175a6.632 6.632 0 0 0-6.637-6.637z"></path></symbol><symbol id="paris-icon-arrow-bottom" viewBox="0 0 32 32"><path d="M16 16.172l4.586-4.586 2.828 2.828L16 21.828l-7.414-7.414 2.828-2.828z"></path></symbol></defs></svg>